<mxfile host="app.diagrams.net" modified="2024-06-01T23:36:45.240Z" agent="Mozilla/5.0 (Windows NT 10.0; Win64; x64) AppleWebKit/537.36 (KHTML, like Gecko) Chrome/125.0.0.0 Safari/537.36" version="24.4.0" etag="yWhr1M1CjuL2_MCGr06z" type="github">
  <diagram name="ページ1" id="_091EeHnG0Myg8tleGBv">
    <mxGraphModel>
      <root>
        <mxCell id="0" />
        <mxCell id="1" parent="0" />
      </root>
    </mxGraphModel>
  </diagram>
</mxfile>
